<?xml version="1.0" encoding="utf-8"?>
<!-- Generator: Adobe Illustrator 16.0.0, SVG Export Plug-In . SVG Version: 6.00 Build 0)  -->
<!DOCTYPE svg PUBLIC "-//W3C//DTD SVG 1.1//EN" "http://www.w3.org/Graphics/SVG/1.1/DTD/svg11.dtd">
<svg version="1.1" id="Capa_1" xmlns="http://www.w3.org/2000/svg" xmlns:xlink="http://www.w3.org/1999/xlink" x="0px" y="0px"
	 width="16px" height="16px" viewBox="0 0 16 16" enable-background="new 0 0 16 16" xml:space="preserve">
<path fill-rule="evenodd" clip-rule="evenodd" d="M0,8.524C0,8.316,0,8.108,0,7.9c0.004-0.016,0.012-0.031,0.013-0.047
	c0.022-0.305,0.102-0.596,0.195-0.885c0.13-0.408,0.341-0.776,0.581-1.125c0.319-0.465,0.718-0.861,1.164-1.206
	c0.517-0.401,1.068-0.75,1.655-1.044c0.55-0.276,1.116-0.515,1.696-0.72c0.623-0.221,1.254-0.414,1.901-0.551
	C7.54,2.25,7.874,2.162,8.213,2.108c0.424-0.067,0.851-0.12,1.277-0.156c0.525-0.045,1.053-0.077,1.58-0.094
	c0.321-0.011,0.645,0.024,0.967,0.026c0.462,0.003,0.914,0.069,1.363,0.168c0.444,0.098,0.863,0.259,1.236,0.524
	c0.464,0.328,0.78,0.77,0.977,1.298c0.171,0.46,0.254,0.943,0.321,1.427c0.025,0.187,0.022,0.376,0.035,0.565
	c0.007,0.103,0.02,0.206,0.03,0.309c0,0.252,0,0.504,0,0.755c-0.005,0.049-0.012,0.097-0.016,0.146
	c-0.035,0.408,0.025,0.819-0.049,1.228c-0.059,0.324-0.085,0.655-0.145,0.979c-0.076,0.424-0.226,0.824-0.406,1.217
	c-0.228,0.495-0.535,0.935-0.905,1.329c-0.337,0.361-0.727,0.661-1.144,0.928c-0.537,0.345-1.117,0.599-1.712,0.82
	c-0.428,0.159-0.875,0.254-1.321,0.342c-0.707,0.139-1.419,0.228-2.141,0.226c-0.533-0.001-1.065-0.029-1.595-0.098
	c-0.587-0.076-1.163-0.201-1.727-0.38c-1.052-0.333-2.01-0.839-2.853-1.556c-0.343-0.291-0.654-0.616-0.924-0.974
	c-0.192-0.255-0.357-0.531-0.512-0.811C0.303,9.879,0.138,9.4,0.057,8.894C0.037,8.771,0.019,8.647,0,8.524z"/>
</svg>
