<svg xmlns="http://www.w3.org/2000/svg" width="16" height="16" viewBox="0 0 16 16" xml:space="preserve"><path fill-rule="evenodd" clip-rule="evenodd" d="M0 8.524V7.9c.004-.016.012-.031.013-.047.022-.305.102-.596.195-.885.13-.408.341-.776.581-1.125a5.4 5.4 0 0 1 1.164-1.206q.775-.602 1.655-1.044.826-.413 1.696-.72a15 15 0 0 1 1.901-.551c.335-.072.669-.16 1.008-.214q.637-.101 1.277-.156a30 30 0 0 1 1.58-.094c.321-.011.645.024.967.026.462.003.914.069 1.363.168.444.098.863.259 1.236.524.464.328.78.77.977 1.298.171.46.254.943.321 1.427.025.187.022.376.035.565.007.103.02.206.03.309v.755l-.016.146c-.035.408.025.819-.049 1.228-.059.324-.085.655-.145.979a5 5 0 0 1-.406 1.217 5 5 0 0 1-.905 1.329 6 6 0 0 1-1.144.928c-.537.345-1.117.599-1.712.82-.428.159-.875.254-1.321.342-.707.139-1.419.228-2.141.226a13 13 0 0 1-1.595-.098 10 10 0 0 1-1.727-.38 8.1 8.1 0 0 1-2.853-1.556 6 6 0 0 1-.924-.974 7 7 0 0 1-.512-.811 4.4 4.4 0 0 1-.492-1.432q-.03-.185-.057-.37"/></svg>