<?xml version="1.0" encoding="utf-8"?>
<!-- Generator: Adobe Illustrator 16.0.0, SVG Export Plug-In . SVG Version: 6.00 Build 0)  -->
<!DOCTYPE svg PUBLIC "-//W3C//DTD SVG 1.1//EN" "http://www.w3.org/Graphics/SVG/1.1/DTD/svg11.dtd">
<svg version="1.1" id="Capa_1" xmlns="http://www.w3.org/2000/svg" xmlns:xlink="http://www.w3.org/1999/xlink" x="0px" y="0px"
	 width="512px" height="52px" viewBox="0 -2.5 512 52" enable-background="new 0 -2.5 512 52" xml:space="preserve">
<path d="M0-2.5v5.726c0.292,0,0.513,0.02,0.729-0.003c5.27-0.517,10.528-1.231,15.81-1.51c8.393-0.441,16.801-0.808,25.203-0.818
	C54,0.881,66.277,0.372,78.511,1.637c6.645,0.689,13.311,1.211,19.929,2.092c5.208,0.691,10.354,1.832,15.533,2.75
	c4.078,0.724,8.202,1.232,12.238,2.141c14.996,3.374,29.575,8.089,43.854,13.778c6.555,2.609,13.296,4.726,19.409,8.408
	c4.314,2.6,9,4.475,13.78,6.129c7.99,2.769,16.065,5.226,24.36,6.848c8.434,1.648,16.948,2.72,25.577,2.57
	c1.855-0.035,3.737,0.338,5.567,0.146c4.525-0.478,9.049-1.058,13.537-1.819c4.211-0.718,8.461-1.437,12.535-2.671
	c4.6-1.393,9.031-3.339,13.516-5.1c0.934-0.367,1.77-0.985,2.658-1.472c1.544-0.84,3.074-1.713,4.646-2.488
	c1.688-0.833,3.438-1.535,5.127-2.36c2.224-1.084,4.426-2.215,6.619-3.354c3.289-1.709,6.521-3.535,9.854-5.148
	c10.494-5.074,21.728-7.438,33.233-8.424c5.802-0.496,11.668-0.396,17.498-0.266c8.899,0.199,17.744,1.117,26.515,2.68
	c7.006,1.246,14.018,2.474,21.014,3.779c9.082,1.695,18.109,3.744,27.242,5.095c6.014,0.889,12.168,0.915,18.267,1.126
	c3.62,0.126,7.26-0.063,10.883-0.245c4.547-0.229,9.088-0.554,13.625-0.922c2.769-0.226,5.533-0.563,8.287-0.944
	c2.74-0.381,5.465-0.879,8.186-1.32V-2.5H0z"/>
</svg>
